<svg xmlns="http://www.w3.org/2000/svg" viewBox="0 0 800 600" width="800" height="600">
  <!-- 背景 -->
  <rect width="800" height="600" fill="#faf8ef"/>

  <!-- タイトルとスコア -->
  <text x="120" y="60" fill="#776e65" font-family="Arial, sans-serif" font-size="48" font-weight="bold">2048</text>

  <!-- スコアボックス -->
  <rect x="480" y="20" width="120" height="55" rx="6" fill="#bbada0"/>
  <text x="540" y="42" fill="#eee4da" font-family="Arial, sans-serif" font-size="13" font-weight="bold" text-anchor="middle">SCORE</text>
  <text x="540" y="65" fill="#fff" font-family="Arial, sans-serif" font-size="22" font-weight="bold" text-anchor="middle">3820</text>

  <rect x="620" y="20" width="120" height="55" rx="6" fill="#bbada0"/>
  <text x="680" y="42" fill="#eee4da" font-family="Arial, sans-serif" font-size="13" font-weight="bold" text-anchor="middle">BEST</text>
  <text x="680" y="65" fill="#fff" font-family="Arial, sans-serif" font-size="22" font-weight="bold" text-anchor="middle">12408</text>

  <!-- New Gameボタン -->
  <rect x="580" y="90" width="160" height="38" rx="6" fill="#8f7a66"/>
  <text x="660" y="115" fill="#fff" font-family="Arial, sans-serif" font-size="16" font-weight="bold" text-anchor="middle">New Game</text>

  <!-- ゲームボード -->
  <rect x="120" y="100" width="440" height="440" rx="8" fill="#bbada0"/>

  <!-- 空セル -->
  <rect x="132" y="112" width="95" height="95" rx="5" fill="#cdc1b4"/>
  <rect x="237" y="112" width="95" height="95" rx="5" fill="#cdc1b4"/>
  <rect x="342" y="112" width="95" height="95" rx="5" fill="#cdc1b4"/>
  <rect x="447" y="112" width="95" height="95" rx="5" fill="#cdc1b4"/>

  <rect x="132" y="217" width="95" height="95" rx="5" fill="#cdc1b4"/>
  <rect x="237" y="217" width="95" height="95" rx="5" fill="#cdc1b4"/>
  <rect x="342" y="217" width="95" height="95" rx="5" fill="#cdc1b4"/>
  <rect x="447" y="217" width="95" height="95" rx="5" fill="#cdc1b4"/>

  <rect x="132" y="322" width="95" height="95" rx="5" fill="#cdc1b4"/>
  <rect x="237" y="322" width="95" height="95" rx="5" fill="#cdc1b4"/>
  <rect x="342" y="322" width="95" height="95" rx="5" fill="#cdc1b4"/>
  <rect x="447" y="322" width="95" height="95" rx="5" fill="#cdc1b4"/>

  <rect x="132" y="427" width="95" height="95" rx="5" fill="#cdc1b4"/>
  <rect x="237" y="427" width="95" height="95" rx="5" fill="#cdc1b4"/>
  <rect x="342" y="427" width="95" height="95" rx="5" fill="#cdc1b4"/>
  <rect x="447" y="427" width="95" height="95" rx="5" fill="#cdc1b4"/>

  <!-- タイル: 2 -->
  <rect x="132" y="112" width="95" height="95" rx="5" fill="#eee4da"/>
  <text x="179" y="170" fill="#776e65" font-family="Arial, sans-serif" font-size="40" font-weight="bold" text-anchor="middle">2</text>

  <!-- タイル: 4 -->
  <rect x="342" y="112" width="95" height="95" rx="5" fill="#ede0c8"/>
  <text x="389" y="170" fill="#776e65" font-family="Arial, sans-serif" font-size="40" font-weight="bold" text-anchor="middle">4</text>

  <!-- タイル: 8 -->
  <rect x="237" y="217" width="95" height="95" rx="5" fill="#f2b179"/>
  <text x="284" y="275" fill="#f9f6f2" font-family="Arial, sans-serif" font-size="40" font-weight="bold" text-anchor="middle">8</text>

  <!-- タイル: 16 -->
  <rect x="447" y="112" width="95" height="95" rx="5" fill="#f59563"/>
  <text x="494" y="170" fill="#f9f6f2" font-family="Arial, sans-serif" font-size="36" font-weight="bold" text-anchor="middle">16</text>

  <!-- タイル: 32 -->
  <rect x="132" y="322" width="95" height="95" rx="5" fill="#f67c5f"/>
  <text x="179" y="380" fill="#f9f6f2" font-family="Arial, sans-serif" font-size="36" font-weight="bold" text-anchor="middle">32</text>

  <!-- タイル: 64 -->
  <rect x="342" y="217" width="95" height="95" rx="5" fill="#f65e3b"/>
  <text x="389" y="275" fill="#f9f6f2" font-family="Arial, sans-serif" font-size="36" font-weight="bold" text-anchor="middle">64</text>

  <!-- タイル: 128 -->
  <rect x="447" y="322" width="95" height="95" rx="5" fill="#edcf72"/>
  <text x="494" y="378" fill="#f9f6f2" font-family="Arial, sans-serif" font-size="32" font-weight="bold" text-anchor="middle">128</text>

  <!-- タイル: 256 -->
  <rect x="132" y="427" width="95" height="95" rx="5" fill="#edcc61"/>
  <text x="179" y="483" fill="#f9f6f2" font-family="Arial, sans-serif" font-size="32" font-weight="bold" text-anchor="middle">256</text>

  <!-- タイル: 512 -->
  <rect x="342" y="427" width="95" height="95" rx="5" fill="#edc850"/>
  <text x="389" y="483" fill="#f9f6f2" font-family="Arial, sans-serif" font-size="32" font-weight="bold" text-anchor="middle">512</text>

  <!-- タイル: 1024 -->
  <rect x="237" y="322" width="95" height="95" rx="5" fill="#edc53f"/>
  <text x="284" y="378" fill="#f9f6f2" font-family="Arial, sans-serif" font-size="26" font-weight="bold" text-anchor="middle">1024</text>

  <!-- タイル: 2 (もう1つ) -->
  <rect x="447" y="427" width="95" height="95" rx="5" fill="#eee4da"/>
  <text x="494" y="483" fill="#776e65" font-family="Arial, sans-serif" font-size="40" font-weight="bold" text-anchor="middle">2</text>

  <!-- 説明テキスト -->
  <text x="120" y="570" fill="#776e65" font-family="Arial, sans-serif" font-size="14">Join the numbers and get to the 2048 tile!</text>
</svg>