<svg xmlns="http://www.w3.org/2000/svg" viewBox="0 0 800 600" width="800" height="600">
  <!-- 背景 -->
  <rect width="800" height="600" fill="#000"/>

  <!-- スコア・ステータスバー -->
  <text x="30" y="25" fill="#fff" font-family="monospace" font-size="14">SCORE: 230</text>
  <text x="350" y="25" fill="#fff" font-family="monospace" font-size="14">TIME</text>
  <rect x="400" y="14" width="200" height="12" fill="#333" rx="2"/>
  <rect x="400" y="14" width="140" height="12" fill="#00cc00" rx="2"/>
  <text x="680" y="25" fill="#fff" font-family="monospace" font-size="14">LIVES: 4</text>

  <!-- ゴールエリア（最上部） -->
  <rect x="0" y="35" width="800" height="60" fill="#191970"/>
  <!-- ゴールポケット5箇所 -->
  <rect x="40" y="40" width="60" height="50" rx="4" fill="#006400"/>
  <rect x="190" y="40" width="60" height="50" rx="4" fill="#006400"/>
  <rect x="370" y="40" width="60" height="50" rx="4" fill="#006400"/>
  <rect x="550" y="40" width="60" height="50" rx="4" fill="#006400"/>
  <rect x="700" y="40" width="60" height="50" rx="4" fill="#006400"/>
  <!-- ゴール済みカエル1匹 -->
  <circle cx="400" cy="65" r="14" fill="#00cc00"/>
  <circle cx="393" cy="59" r="4" fill="#fff"/>
  <circle cx="407" cy="59" r="4" fill="#fff"/>
  <circle cx="393" cy="59" r="2" fill="#000"/>
  <circle cx="407" cy="59" r="2" fill="#000"/>
  <!-- 隙間は水（紺） -->
  <rect x="100" y="40" width="90" height="50" fill="#191970"/>
  <rect x="250" y="40" width="120" height="50" fill="#191970"/>
  <rect x="430" y="40" width="120" height="50" fill="#191970"/>
  <rect x="610" y="40" width="90" height="50" fill="#191970"/>

  <!-- 川ゾーン（5レーン） -->
  <rect x="0" y="95" width="800" height="250" fill="#0000aa"/>

  <!-- 川レーン1: 丸太 -->
  <rect x="50" y="100" width="140" height="40" rx="10" fill="#8B4513"/>
  <rect x="60" y="105" width="120" height="30" rx="8" fill="#A0522D"/>
  <line x1="90" y1="105" x2="90" y2="135" stroke="#6b3410" stroke-width="1"/>
  <line x1="130" y1="105" x2="130" y2="135" stroke="#6b3410" stroke-width="1"/>

  <rect x="350" y="100" width="140" height="40" rx="10" fill="#8B4513"/>
  <rect x="360" y="105" width="120" height="30" rx="8" fill="#A0522D"/>
  <line x1="390" y1="105" x2="390" y2="135" stroke="#6b3410" stroke-width="1"/>
  <line x1="430" y1="105" x2="430" y2="135" stroke="#6b3410" stroke-width="1"/>

  <rect x="650" y="100" width="140" height="40" rx="10" fill="#8B4513"/>
  <rect x="660" y="105" width="120" height="30" rx="8" fill="#A0522D"/>

  <!-- 川レーン2: 亀 -->
  <g>
    <ellipse cx="100" cy="170" rx="20" ry="16" fill="#006400"/>
    <ellipse cx="100" cy="170" rx="14" ry="11" fill="#228B22"/>
    <ellipse cx="140" cy="170" rx="20" ry="16" fill="#006400"/>
    <ellipse cx="140" cy="170" rx="14" ry="11" fill="#228B22"/>
    <ellipse cx="180" cy="170" rx="20" ry="16" fill="#006400"/>
    <ellipse cx="180" cy="170" rx="14" ry="11" fill="#228B22"/>
  </g>
  <g>
    <ellipse cx="400" cy="170" rx="20" ry="16" fill="#006400"/>
    <ellipse cx="400" cy="170" rx="14" ry="11" fill="#228B22"/>
    <ellipse cx="440" cy="170" rx="20" ry="16" fill="#006400"/>
    <ellipse cx="440" cy="170" rx="14" ry="11" fill="#228B22"/>
    <ellipse cx="480" cy="170" rx="20" ry="16" fill="#006400"/>
    <ellipse cx="480" cy="170" rx="14" ry="11" fill="#228B22"/>
  </g>
  <g opacity="0.5">
    <!-- 沈みかけの亀 -->
    <ellipse cx="660" cy="170" rx="20" ry="16" fill="#006400"/>
    <ellipse cx="700" cy="170" rx="20" ry="16" fill="#006400"/>
  </g>

  <!-- 川レーン3: 長い丸太 -->
  <rect x="20" y="195" width="200" height="40" rx="10" fill="#8B4513"/>
  <rect x="30" y="200" width="180" height="30" rx="8" fill="#A0522D"/>
  <rect x="400" y="195" width="200" height="40" rx="10" fill="#8B4513"/>
  <rect x="410" y="200" width="180" height="30" rx="8" fill="#A0522D"/>

  <!-- 川レーン4: 亀 -->
  <g>
    <ellipse cx="200" cy="260" rx="20" ry="16" fill="#006400"/>
    <ellipse cx="200" cy="260" rx="14" ry="11" fill="#228B22"/>
    <ellipse cx="240" cy="260" rx="20" ry="16" fill="#006400"/>
    <ellipse cx="240" cy="260" rx="14" ry="11" fill="#228B22"/>
  </g>
  <g>
    <ellipse cx="500" cy="260" rx="20" ry="16" fill="#006400"/>
    <ellipse cx="500" cy="260" rx="14" ry="11" fill="#228B22"/>
    <ellipse cx="540" cy="260" rx="20" ry="16" fill="#006400"/>
    <ellipse cx="540" cy="260" rx="14" ry="11" fill="#228B22"/>
  </g>

  <!-- 川レーン5: 丸太 -->
  <rect x="100" y="290" width="120" height="40" rx="10" fill="#8B4513"/>
  <rect x="110" y="295" width="100" height="30" rx="8" fill="#A0522D"/>
  <rect x="450" y="290" width="120" height="40" rx="10" fill="#8B4513"/>
  <rect x="460" y="295" width="100" height="30" rx="8" fill="#A0522D"/>
  <rect x="720" y="290" width="80" height="40" rx="10" fill="#8B4513"/>

  <!-- 中央安全地帯 -->
  <rect x="0" y="345" width="800" height="40" fill="#006400"/>
  <rect x="0" y="345" width="800" height="2" fill="#228B22"/>
  <rect x="0" y="383" width="800" height="2" fill="#228B22"/>
  <!-- 草のディテール -->
  <rect x="50" y="355" width="20" height="20" fill="#228B22" rx="3"/>
  <rect x="200" y="350" width="25" height="25" fill="#228B22" rx="3"/>
  <rect x="400" y="352" width="22" height="22" fill="#228B22" rx="3"/>
  <rect x="600" y="355" width="20" height="20" fill="#228B22" rx="3"/>
  <rect x="730" y="350" width="25" height="25" fill="#228B22" rx="3"/>

  <!-- 道路ゾーン（5レーン） -->
  <rect x="0" y="385" width="800" height="180" fill="#333"/>
  <!-- 車線の白い点線 -->
  <g stroke="#fff" stroke-width="1" stroke-dasharray="20,15" opacity="0.5">
    <line x1="0" y1="421" x2="800" y2="421"/>
    <line x1="0" y1="457" x2="800" y2="457"/>
    <line x1="0" y1="493" x2="800" y2="493"/>
    <line x1="0" y1="529" x2="800" y2="529"/>
  </g>

  <!-- 道路レーン1: 乗用車（左向き） -->
  <rect x="100" y="392" width="55" height="24" rx="6" fill="#ff4444"/>
  <rect x="108" y="395" width="15" height="18" rx="2" fill="#88ccff" opacity="0.6"/>
  <circle cx="112" cy="418" r="5" fill="#222"/>
  <circle cx="145" cy="418" r="5" fill="#222"/>

  <rect x="400" y="392" width="55" height="24" rx="6" fill="#ff4444"/>
  <rect x="408" y="395" width="15" height="18" rx="2" fill="#88ccff" opacity="0.6"/>
  <circle cx="412" cy="418" r="5" fill="#222"/>
  <circle cx="445" cy="418" r="5" fill="#222"/>

  <rect x="650" y="392" width="55" height="24" rx="6" fill="#ff4444"/>
  <rect x="658" y="395" width="15" height="18" rx="2" fill="#88ccff" opacity="0.6"/>
  <circle cx="662" cy="418" r="5" fill="#222"/>
  <circle cx="695" cy="418" r="5" fill="#222"/>

  <!-- 道路レーン2: トラック（右向き） -->
  <rect x="50" y="430" width="90" height="24" rx="4" fill="#4444ff"/>
  <rect x="120" y="432" width="18" height="20" rx="2" fill="#88ccff" opacity="0.5"/>
  <circle cx="65" cy="456" r="5" fill="#222"/>
  <circle cx="85" cy="456" r="5" fill="#222"/>
  <circle cx="130" cy="456" r="5" fill="#222"/>

  <rect x="350" y="430" width="90" height="24" rx="4" fill="#4444ff"/>
  <rect x="420" y="432" width="18" height="20" rx="2" fill="#88ccff" opacity="0.5"/>
  <circle cx="365" cy="456" r="5" fill="#222"/>
  <circle cx="385" cy="456" r="5" fill="#222"/>
  <circle cx="430" cy="456" r="5" fill="#222"/>

  <!-- 道路レーン3: 乗用車（左向き） -->
  <rect x="200" y="466" width="50" height="22" rx="5" fill="#ffcc00"/>
  <rect x="207" y="469" width="12" height="16" rx="2" fill="#88ccff" opacity="0.6"/>
  <circle cx="212" cy="490" r="5" fill="#222"/>
  <circle cx="240" cy="490" r="5" fill="#222"/>

  <rect x="500" y="466" width="50" height="22" rx="5" fill="#ffcc00"/>
  <rect x="507" y="469" width="12" height="16" rx="2" fill="#88ccff" opacity="0.6"/>
  <circle cx="512" cy="490" r="5" fill="#222"/>
  <circle cx="540" cy="490" r="5" fill="#222"/>

  <!-- 道路レーン4: トラック（右向き） -->
  <rect x="150" y="500" width="80" height="24" rx="4" fill="#cc44cc"/>
  <rect x="212" y="502" width="16" height="20" rx="2" fill="#88ccff" opacity="0.5"/>
  <circle cx="162" cy="526" r="5" fill="#222"/>
  <circle cx="220" cy="526" r="5" fill="#222"/>

  <rect x="500" y="500" width="80" height="24" rx="4" fill="#cc44cc"/>
  <rect x="562" y="502" width="16" height="20" rx="2" fill="#88ccff" opacity="0.5"/>
  <circle cx="512" cy="526" r="5" fill="#222"/>
  <circle cx="570" cy="526" r="5" fill="#222"/>

  <!-- 道路レーン5: 速い車（左向き） -->
  <rect x="80" y="536" width="45" height="20" rx="5" fill="#ff8800"/>
  <circle cx="90" cy="558" r="4" fill="#222"/>
  <circle cx="115" cy="558" r="4" fill="#222"/>

  <rect x="300" y="536" width="45" height="20" rx="5" fill="#ff8800"/>
  <circle cx="310" cy="558" r="4" fill="#222"/>
  <circle cx="335" cy="558" r="4" fill="#222"/>

  <rect x="550" y="536" width="45" height="20" rx="5" fill="#ff8800"/>
  <circle cx="560" cy="558" r="4" fill="#222"/>
  <circle cx="585" cy="558" r="4" fill="#222"/>

  <!-- 下部安全地帯 -->
  <rect x="0" y="565" width="800" height="35" fill="#006400"/>

  <!-- カエル（プレイヤー）- 道路ゾーンのスタート付近 -->
  <g transform="translate(400, 572)">
    <!-- 体 -->
    <ellipse cx="0" cy="0" rx="14" ry="12" fill="#00cc00"/>
    <!-- 頭 -->
    <ellipse cx="0" cy="-10" rx="10" ry="8" fill="#00dd00"/>
    <!-- 目 -->
    <circle cx="-6" cy="-14" r="4" fill="#fff"/>
    <circle cx="6" cy="-14" r="4" fill="#fff"/>
    <circle cx="-6" cy="-14" r="2" fill="#000"/>
    <circle cx="6" cy="-14" r="2" fill="#000"/>
    <!-- 足 -->
    <ellipse cx="-14" cy="6" rx="6" ry="4" fill="#00aa00"/>
    <ellipse cx="14" cy="6" rx="6" ry="4" fill="#00aa00"/>
    <ellipse cx="-12" cy="-4" rx="5" ry="3" fill="#00aa00"/>
    <ellipse cx="12" cy="-4" rx="5" ry="3" fill="#00aa00"/>
  </g>
</svg>