<svg xmlns="http://www.w3.org/2000/svg" viewBox="0 0 800 600" width="800" height="600">
  <!-- 背景 -->
  <rect width="800" height="600" fill="#000"/>

  <!-- スコア表示 -->
  <text x="30" y="35" fill="#fff" font-family="monospace" font-size="16">SCORE</text>
  <text x="30" y="58" fill="#fff" font-family="monospace" font-size="22">1580</text>
  <text x="350" y="35" fill="#fff" font-family="monospace" font-size="16">HI-SCORE</text>
  <text x="350" y="58" fill="#fff" font-family="monospace" font-size="22">9990</text>
  <text x="650" y="35" fill="#fff" font-family="monospace" font-size="16">LIVES</text>
  <!-- 残機アイコン -->
  <polygon points="670,50 680,42 690,50" fill="#00ff00"/>
  <rect x="675" y="50" width="10" height="4" fill="#00ff00"/>
  <polygon points="710,50 720,42 730,50" fill="#00ff00"/>
  <rect x="715" y="50" width="10" height="4" fill="#00ff00"/>

  <!-- UFO -->
  <ellipse cx="180" cy="85" rx="22" ry="10" fill="#ff0000"/>
  <ellipse cx="180" cy="80" rx="12" ry="6" fill="#ff3333"/>
  <text x="160" y="108" fill="#ff0000" font-family="monospace" font-size="12">?</text>

  <!-- エイリアン行1 (最上段 - イカ型, 30pt) -->
  <g fill="#fff">
    <!-- エイリアン1-1 -->
    <rect x="140" y="120" width="4" height="4"/>
    <rect x="156" y="120" width="4" height="4"/>
    <rect x="144" y="124" width="4" height="4"/>
    <rect x="152" y="124" width="4" height="4"/>
    <rect x="140" y="128" width="24" height="4"/>
    <rect x="136" y="132" width="8" height="4"/>
    <rect x="148" y="132" width="4" height="4"/>
    <rect x="156" y="132" width="8" height="4"/>
    <rect x="136" y="136" width="28" height="4"/>
    <rect x="140" y="140" width="4" height="4"/>
    <rect x="156" y="140" width="4" height="4"/>

    <!-- エイリアン1-2 -->
    <rect x="200" y="120" width="4" height="4"/>
    <rect x="216" y="120" width="4" height="4"/>
    <rect x="204" y="124" width="4" height="4"/>
    <rect x="212" y="124" width="4" height="4"/>
    <rect x="200" y="128" width="24" height="4"/>
    <rect x="196" y="132" width="8" height="4"/>
    <rect x="208" y="132" width="4" height="4"/>
    <rect x="216" y="132" width="8" height="4"/>
    <rect x="196" y="136" width="28" height="4"/>
    <rect x="200" y="140" width="4" height="4"/>
    <rect x="216" y="140" width="4" height="4"/>

    <!-- 簡略化: 残りのエイリアンをrectで -->
    <rect x="260" y="124" width="20" height="16" rx="2"/>
    <rect x="320" y="124" width="20" height="16" rx="2"/>
    <rect x="380" y="124" width="20" height="16" rx="2"/>
    <rect x="440" y="124" width="20" height="16" rx="2"/>
    <rect x="500" y="124" width="20" height="16" rx="2"/>
    <rect x="560" y="124" width="20" height="16" rx="2"/>
    <rect x="620" y="124" width="20" height="16" rx="2"/>
  </g>

  <!-- エイリアン行2-3 (カニ型, 20pt) -->
  <g fill="#00ff00">
    <!-- 行2 -->
    <rect x="135" y="170" width="24" height="4"/>
    <rect x="131" y="174" width="32" height="4"/>
    <rect x="131" y="178" width="4" height="4"/>
    <rect x="139" y="178" width="4" height="4"/>
    <rect x="147" y="178" width="4" height="4"/>
    <rect x="155" y="178" width="4" height="4"/>
    <rect x="131" y="182" width="32" height="4"/>
    <rect x="135" y="186" width="8" height="4"/>
    <rect x="151" y="186" width="8" height="4"/>

    <rect x="195" y="170" width="24" height="4"/>
    <rect x="191" y="174" width="32" height="4"/>
    <rect x="191" y="178" width="4" height="4"/>
    <rect x="199" y="178" width="4" height="4"/>
    <rect x="207" y="178" width="4" height="4"/>
    <rect x="215" y="178" width="4" height="4"/>
    <rect x="191" y="182" width="32" height="4"/>
    <rect x="195" y="186" width="8" height="4"/>
    <rect x="211" y="186" width="8" height="4"/>

    <!-- 残り -->
    <rect x="258" y="172" width="24" height="16" rx="2"/>
    <rect x="318" y="172" width="24" height="16" rx="2"/>
    <rect x="378" y="172" width="24" height="16" rx="2"/>
    <rect x="438" y="172" width="24" height="16" rx="2"/>
    <rect x="498" y="172" width="24" height="16" rx="2"/>
    <rect x="558" y="172" width="24" height="16" rx="2"/>
    <rect x="618" y="172" width="24" height="16" rx="2"/>

    <!-- 行3 -->
    <rect x="258" y="220" width="24" height="16" rx="2"/>
    <rect x="318" y="220" width="24" height="16" rx="2"/>
    <rect x="378" y="220" width="24" height="16" rx="2"/>
    <rect x="438" y="220" width="24" height="16" rx="2"/>
    <rect x="498" y="220" width="24" height="16" rx="2"/>
    <rect x="558" y="220" width="24" height="16" rx="2"/>
    <rect x="618" y="220" width="24" height="16" rx="2"/>

    <rect x="135" y="218" width="24" height="20" rx="3"/>
    <rect x="195" y="218" width="24" height="20" rx="3"/>
  </g>

  <!-- エイリアン行4-5 (タコ型, 10pt) -->
  <g fill="#00ff00">
    <!-- 行4 -->
    <rect x="136" y="268" width="22" height="16" rx="4"/>
    <rect x="196" y="268" width="22" height="16" rx="4"/>
    <rect x="256" y="268" width="22" height="16" rx="4"/>
    <rect x="316" y="268" width="22" height="16" rx="4"/>
    <rect x="376" y="268" width="22" height="16" rx="4"/>
    <rect x="436" y="268" width="22" height="16" rx="4"/>
    <rect x="496" y="268" width="22" height="16" rx="4"/>
    <rect x="556" y="268" width="22" height="16" rx="4"/>
    <rect x="616" y="268" width="22" height="16" rx="4"/>

    <!-- 行5 (一部撃破済み - 欠け) -->
    <rect x="136" y="316" width="22" height="16" rx="4"/>
    <rect x="196" y="316" width="22" height="16" rx="4"/>
    <!-- 256は撃破済み -->
    <rect x="316" y="316" width="22" height="16" rx="4"/>
    <rect x="376" y="316" width="22" height="16" rx="4"/>
    <!-- 436は撃破済み -->
    <rect x="496" y="316" width="22" height="16" rx="4"/>
    <rect x="556" y="316" width="22" height="16" rx="4"/>
    <rect x="616" y="316" width="22" height="16" rx="4"/>
  </g>

  <!-- エイリアンの弾 -->
  <rect x="208" y="340" width="3" height="12" fill="#fff"/>
  <rect x="568" y="290" width="3" height="12" fill="#fff"/>

  <!-- 防護壁4基 -->
  <g fill="#00ff00">
    <!-- 壁1 -->
    <rect x="120" y="440" width="80" height="8"/>
    <rect x="116" y="448" width="88" height="8"/>
    <rect x="116" y="456" width="88" height="8"/>
    <rect x="116" y="464" width="88" height="8"/>
    <rect x="116" y="472" width="30" height="8"/>
    <rect x="174" y="472" width="30" height="8"/>
    <!-- 被弾痕 -->
    <rect x="145" y="440" width="6" height="4" fill="#000"/>
    <rect x="155" y="448" width="4" height="4" fill="#000"/>

    <!-- 壁2 -->
    <rect x="280" y="440" width="80" height="8"/>
    <rect x="276" y="448" width="88" height="8"/>
    <rect x="276" y="456" width="88" height="8"/>
    <rect x="276" y="464" width="88" height="8"/>
    <rect x="276" y="472" width="30" height="8"/>
    <rect x="334" y="472" width="30" height="8"/>

    <!-- 壁3 -->
    <rect x="440" y="440" width="80" height="8"/>
    <rect x="436" y="448" width="88" height="8"/>
    <rect x="436" y="456" width="88" height="8"/>
    <rect x="436" y="464" width="88" height="8"/>
    <rect x="436" y="472" width="30" height="8"/>
    <rect x="494" y="472" width="30" height="8"/>
    <rect x="470" y="440" width="8" height="6" fill="#000"/>

    <!-- 壁4 -->
    <rect x="600" y="440" width="80" height="8"/>
    <rect x="596" y="448" width="88" height="8"/>
    <rect x="596" y="456" width="88" height="8"/>
    <rect x="596" y="464" width="88" height="8"/>
    <rect x="596" y="472" width="30" height="8"/>
    <rect x="654" y="472" width="30" height="8"/>
  </g>

  <!-- 自機 -->
  <polygon points="400,520 410,510 420,520" fill="#00ff00"/>
  <rect x="395" y="520" width="30" height="6" fill="#00ff00"/>
  <rect x="405" y="524" width="10" height="4" fill="#00ff00"/>

  <!-- 自機の弾 -->
  <rect x="409" y="490" width="2" height="10" fill="#fff"/>

  <!-- 地面線 -->
  <line x1="20" y1="545" x2="780" y2="545" stroke="#00ff00" stroke-width="2"/>

  <!-- CREDIT -->
  <text x="600" y="580" fill="#fff" font-family="monospace" font-size="14">CREDIT 01</text>
</svg>