<svg xmlns="http://www.w3.org/2000/svg" viewBox="0 0 800 600" width="800" height="600">
  <!-- 背景 -->
  <rect width="800" height="600" fill="#c0c0c0"/>

  <!-- 上部バー -->
  <rect x="50" y="20" width="700" height="50" fill="#c0c0c0" stroke="#808080" stroke-width="2"/>
  <rect x="52" y="22" width="696" height="46" fill="#bdbdbd" stroke="#fff" stroke-width="1"/>

  <!-- 地雷カウンター（左） -->
  <rect x="65" y="30" width="80" height="32" fill="#000" rx="2"/>
  <text x="105" y="53" fill="#ff0000" font-family="monospace" font-size="24" font-weight="bold" text-anchor="middle">012</text>

  <!-- リセットボタン（中央） -->
  <rect x="370" y="28" width="36" height="36" fill="#c0c0c0" stroke="#fff" stroke-width="2"/>
  <rect x="370" y="28" width="36" height="36" fill="none" stroke="#808080" stroke-width="1"/>
  <circle cx="388" cy="46" r="12" fill="#ffff00" stroke="#000" stroke-width="1"/>
  <circle cx="383" cy="42" r="2" fill="#000"/>
  <circle cx="393" cy="42" r="2" fill="#000"/>
  <path d="M380 50 Q388 56 396 50" fill="none" stroke="#000" stroke-width="1.5"/>

  <!-- タイマー（右） -->
  <rect x="630" y="30" width="80" height="32" fill="#000" rx="2"/>
  <text x="670" y="53" fill="#ff0000" font-family="monospace" font-size="24" font-weight="bold" text-anchor="middle">047</text>

  <!-- グリッド領域 -->
  <rect x="50" y="85" width="700" height="495" fill="#c0c0c0" stroke="#808080" stroke-width="2"/>

  <!-- セルサイズ: 約30x30、16列 x 16行で480x480 -->
  <!-- グリッドオフセット: x=160, y=92 -->

  <!-- 未開封セル（3D凸型）のパターン -->
  <defs>
    <pattern id="unopened" width="30" height="30" patternUnits="userSpaceOnUse">
      <rect width="30" height="30" fill="#c0c0c0"/>
      <line x1="0" y1="0" x2="30" y2="0" stroke="#fff" stroke-width="2"/>
      <line x1="0" y1="0" x2="0" y2="30" stroke="#fff" stroke-width="2"/>
      <line x1="29" y1="0" x2="29" y2="30" stroke="#808080" stroke-width="2"/>
      <line x1="0" y1="29" x2="30" y2="29" stroke="#808080" stroke-width="2"/>
    </pattern>
  </defs>

  <!-- 未開封セルの行列 -->
  <!-- 行1: 全未開封 -->
  <g>
    <!-- 未開封セル群 -->
    <rect x="160" y="95" width="30" height="30" fill="#c0c0c0" stroke="#fff" stroke-width="1"/>
    <line x1="160" y1="95" x2="190" y2="95" stroke="#fff" stroke-width="2"/>
    <line x1="160" y1="95" x2="160" y2="125" stroke="#fff" stroke-width="2"/>
    <line x1="189" y1="95" x2="189" y2="125" stroke="#808080" stroke-width="2"/>
    <line x1="160" y1="124" x2="190" y2="124" stroke="#808080" stroke-width="2"/>

    <rect x="190" y="95" width="30" height="30" fill="#c0c0c0" stroke="#fff" stroke-width="1"/>
    <line x1="190" y1="95" x2="220" y2="95" stroke="#fff" stroke-width="2"/>
    <line x1="190" y1="95" x2="190" y2="125" stroke="#fff" stroke-width="2"/>
    <line x1="219" y1="95" x2="219" y2="125" stroke="#808080" stroke-width="2"/>
    <line x1="190" y1="124" x2="220" y2="124" stroke="#808080" stroke-width="2"/>

    <rect x="220" y="95" width="30" height="30" fill="#c0c0c0" stroke="#fff" stroke-width="1"/>
    <line x1="220" y1="95" x2="250" y2="95" stroke="#fff" stroke-width="2"/>
    <line x1="220" y1="95" x2="220" y2="125" stroke="#fff" stroke-width="2"/>
    <line x1="249" y1="95" x2="249" y2="125" stroke="#808080" stroke-width="2"/>
    <line x1="220" y1="124" x2="250" y2="124" stroke="#808080" stroke-width="2"/>
  </g>

  <!-- 未開封セル群（大量）- 上部・右部 -->
  <g>
    <!-- 行1 残り -->
    <rect x="250" y="95" width="30" height="30" fill="#c0c0c0"/>
    <line x1="250" y1="95" x2="280" y2="95" stroke="#fff" stroke-width="2"/>
    <line x1="250" y1="95" x2="250" y2="125" stroke="#fff" stroke-width="2"/>
    <line x1="279" y1="95" x2="279" y2="125" stroke="#808080" stroke-width="2"/>
    <line x1="250" y1="124" x2="280" y2="124" stroke="#808080" stroke-width="2"/>

    <rect x="280" y="95" width="30" height="30" fill="#c0c0c0"/>
    <line x1="280" y1="95" x2="310" y2="95" stroke="#fff" stroke-width="2"/>
    <line x1="280" y1="95" x2="280" y2="125" stroke="#fff" stroke-width="2"/>
    <line x1="309" y1="95" x2="309" y2="125" stroke="#808080" stroke-width="2"/>
    <line x1="280" y1="124" x2="310" y2="124" stroke="#808080" stroke-width="2"/>

    <rect x="310" y="95" width="30" height="30" fill="#c0c0c0"/>
    <line x1="310" y1="95" x2="340" y2="95" stroke="#fff" stroke-width="2"/>
    <line x1="310" y1="95" x2="310" y2="125" stroke="#fff" stroke-width="2"/>
    <line x1="339" y1="95" x2="339" y2="125" stroke="#808080" stroke-width="2"/>
    <line x1="310" y1="124" x2="340" y2="124" stroke="#808080" stroke-width="2"/>
  </g>

  <!-- 未開封セルの大きなブロック（上半分と右側） -->
  <!-- 簡略化: 大きな未開封領域 -->
  <g opacity="1">
    <!-- 上部の未開封ブロック 行1-3 -->
    <rect x="340" y="95" width="300" height="90" fill="#c0c0c0"/>
    <!-- 3D効果の格子 -->
    <line x1="340" y1="95" x2="640" y2="95" stroke="#fff" stroke-width="1"/>
    <line x1="370" y1="95" x2="370" y2="185" stroke="#808080" stroke-width="1"/>
    <line x1="400" y1="95" x2="400" y2="185" stroke="#808080" stroke-width="1"/>
    <line x1="430" y1="95" x2="430" y2="185" stroke="#808080" stroke-width="1"/>
    <line x1="460" y1="95" x2="460" y2="185" stroke="#808080" stroke-width="1"/>
    <line x1="490" y1="95" x2="490" y2="185" stroke="#808080" stroke-width="1"/>
    <line x1="520" y1="95" x2="520" y2="185" stroke="#808080" stroke-width="1"/>
    <line x1="550" y1="95" x2="550" y2="185" stroke="#808080" stroke-width="1"/>
    <line x1="580" y1="95" x2="580" y2="185" stroke="#808080" stroke-width="1"/>
    <line x1="610" y1="95" x2="610" y2="185" stroke="#808080" stroke-width="1"/>
    <line x1="340" y1="125" x2="640" y2="125" stroke="#808080" stroke-width="1"/>
    <line x1="340" y1="155" x2="640" y2="155" stroke="#808080" stroke-width="1"/>
    <!-- 白いハイライト -->
    <line x1="341" y1="96" x2="341" y2="185" stroke="#fff" stroke-width="1"/>
    <line x1="371" y1="96" x2="371" y2="185" stroke="#fff" stroke-width="1"/>
    <line x1="401" y1="96" x2="401" y2="185" stroke="#fff" stroke-width="1"/>
    <line x1="431" y1="96" x2="431" y2="185" stroke="#fff" stroke-width="1"/>
    <line x1="461" y1="96" x2="461" y2="185" stroke="#fff" stroke-width="1"/>
    <line x1="491" y1="96" x2="491" y2="185" stroke="#fff" stroke-width="1"/>
    <line x1="521" y1="96" x2="521" y2="185" stroke="#fff" stroke-width="1"/>
    <line x1="551" y1="96" x2="551" y2="185" stroke="#fff" stroke-width="1"/>
    <line x1="581" y1="96" x2="581" y2="185" stroke="#fff" stroke-width="1"/>
    <line x1="611" y1="96" x2="611" y2="185" stroke="#fff" stroke-width="1"/>
    <line x1="340" y1="96" x2="640" y2="96" stroke="#fff" stroke-width="1"/>
    <line x1="340" y1="126" x2="640" y2="126" stroke="#fff" stroke-width="1"/>
    <line x1="340" y1="156" x2="640" y2="156" stroke="#fff" stroke-width="1"/>
  </g>

  <!-- 右側の未開封ブロック -->
  <g>
    <rect x="460" y="185" width="180" height="300" fill="#c0c0c0"/>
    <line x1="490" y1="185" x2="490" y2="485" stroke="#808080" stroke-width="1"/>
    <line x1="520" y1="185" x2="520" y2="485" stroke="#808080" stroke-width="1"/>
    <line x1="550" y1="185" x2="550" y2="485" stroke="#808080" stroke-width="1"/>
    <line x1="580" y1="185" x2="580" y2="485" stroke="#808080" stroke-width="1"/>
    <line x1="610" y1="185" x2="610" y2="485" stroke="#808080" stroke-width="1"/>
    <line x1="460" y1="215" x2="640" y2="215" stroke="#808080" stroke-width="1"/>
    <line x1="460" y1="245" x2="640" y2="245" stroke="#808080" stroke-width="1"/>
    <line x1="460" y1="275" x2="640" y2="275" stroke="#808080" stroke-width="1"/>
    <line x1="460" y1="305" x2="640" y2="305" stroke="#808080" stroke-width="1"/>
    <line x1="460" y1="335" x2="640" y2="335" stroke="#808080" stroke-width="1"/>
    <line x1="460" y1="365" x2="640" y2="365" stroke="#808080" stroke-width="1"/>
    <line x1="460" y1="395" x2="640" y2="395" stroke="#808080" stroke-width="1"/>
    <line x1="460" y1="425" x2="640" y2="425" stroke="#808080" stroke-width="1"/>
    <line x1="460" y1="455" x2="640" y2="455" stroke="#808080" stroke-width="1"/>
    <!-- 白ハイライト -->
    <line x1="461" y1="186" x2="461" y2="485" stroke="#fff" stroke-width="1"/>
    <line x1="491" y1="186" x2="491" y2="485" stroke="#fff" stroke-width="1"/>
    <line x1="521" y1="186" x2="521" y2="485" stroke="#fff" stroke-width="1"/>
    <line x1="551" y1="186" x2="551" y2="485" stroke="#fff" stroke-width="1"/>
    <line x1="581" y1="186" x2="581" y2="485" stroke="#fff" stroke-width="1"/>
    <line x1="611" y1="186" x2="611" y2="485" stroke="#fff" stroke-width="1"/>
    <line x1="460" y1="186" x2="640" y2="186" stroke="#fff" stroke-width="1"/>
    <line x1="460" y1="216" x2="640" y2="216" stroke="#fff" stroke-width="1"/>
    <line x1="460" y1="246" x2="640" y2="246" stroke="#fff" stroke-width="1"/>
    <line x1="460" y1="276" x2="640" y2="276" stroke="#fff" stroke-width="1"/>
    <line x1="460" y1="306" x2="640" y2="306" stroke="#fff" stroke-width="1"/>
    <line x1="460" y1="336" x2="640" y2="336" stroke="#fff" stroke-width="1"/>
    <line x1="460" y1="366" x2="640" y2="366" stroke="#fff" stroke-width="1"/>
    <line x1="460" y1="396" x2="640" y2="396" stroke="#fff" stroke-width="1"/>
    <line x1="460" y1="426" x2="640" y2="426" stroke="#fff" stroke-width="1"/>
    <line x1="460" y1="456" x2="640" y2="456" stroke="#fff" stroke-width="1"/>
  </g>

  <!-- 開いたセル群（左下エリア） -->
  <!-- 空白セル -->
  <rect x="160" y="185" width="300" height="300" fill="#bdbdbd" stroke="#808080" stroke-width="0.5"/>
  <!-- 空白セルの内部グリッド -->
  <line x1="190" y1="185" x2="190" y2="485" stroke="#808080" stroke-width="0.5"/>
  <line x1="220" y1="185" x2="220" y2="485" stroke="#808080" stroke-width="0.5"/>
  <line x1="250" y1="185" x2="250" y2="485" stroke="#808080" stroke-width="0.5"/>
  <line x1="280" y1="185" x2="280" y2="485" stroke="#808080" stroke-width="0.5"/>
  <line x1="310" y1="185" x2="310" y2="485" stroke="#808080" stroke-width="0.5"/>
  <line x1="340" y1="185" x2="340" y2="485" stroke="#808080" stroke-width="0.5"/>
  <line x1="370" y1="185" x2="370" y2="485" stroke="#808080" stroke-width="0.5"/>
  <line x1="400" y1="185" x2="400" y2="485" stroke="#808080" stroke-width="0.5"/>
  <line x1="430" y1="185" x2="430" y2="485" stroke="#808080" stroke-width="0.5"/>
  <line x1="160" y1="215" x2="460" y2="215" stroke="#808080" stroke-width="0.5"/>
  <line x1="160" y1="245" x2="460" y2="245" stroke="#808080" stroke-width="0.5"/>
  <line x1="160" y1="275" x2="460" y2="275" stroke="#808080" stroke-width="0.5"/>
  <line x1="160" y1="305" x2="460" y2="305" stroke="#808080" stroke-width="0.5"/>
  <line x1="160" y1="335" x2="460" y2="335" stroke="#808080" stroke-width="0.5"/>
  <line x1="160" y1="365" x2="460" y2="365" stroke="#808080" stroke-width="0.5"/>
  <line x1="160" y1="395" x2="460" y2="395" stroke="#808080" stroke-width="0.5"/>
  <line x1="160" y1="425" x2="460" y2="425" stroke="#808080" stroke-width="0.5"/>
  <line x1="160" y1="455" x2="460" y2="455" stroke="#808080" stroke-width="0.5"/>

  <!-- 数字セル -->
  <!-- 1=青 -->
  <text x="175" y="210" fill="#0000ff" font-family="Arial, sans-serif" font-size="20" font-weight="bold">1</text>
  <text x="235" y="210" fill="#0000ff" font-family="Arial, sans-serif" font-size="20" font-weight="bold">1</text>
  <text x="325" y="270" fill="#0000ff" font-family="Arial, sans-serif" font-size="20" font-weight="bold">1</text>
  <text x="175" y="360" fill="#0000ff" font-family="Arial, sans-serif" font-size="20" font-weight="bold">1</text>
  <text x="385" y="300" fill="#0000ff" font-family="Arial, sans-serif" font-size="20" font-weight="bold">1</text>

  <!-- 2=緑 -->
  <text x="205" y="210" fill="#008000" font-family="Arial, sans-serif" font-size="20" font-weight="bold">2</text>
  <text x="295" y="270" fill="#008000" font-family="Arial, sans-serif" font-size="20" font-weight="bold">2</text>
  <text x="355" y="300" fill="#008000" font-family="Arial, sans-serif" font-size="20" font-weight="bold">2</text>
  <text x="205" y="360" fill="#008000" font-family="Arial, sans-serif" font-size="20" font-weight="bold">2</text>

  <!-- 3=赤 -->
  <text x="265" y="240" fill="#ff0000" font-family="Arial, sans-serif" font-size="20" font-weight="bold">3</text>
  <text x="415" y="270" fill="#ff0000" font-family="Arial, sans-serif" font-size="20" font-weight="bold">3</text>

  <!-- 4=紫 -->
  <text x="325" y="300" fill="#800080" font-family="Arial, sans-serif" font-size="20" font-weight="bold">4</text>

  <!-- 境界の数字セル -->
  <text x="415" y="210" fill="#0000ff" font-family="Arial, sans-serif" font-size="20" font-weight="bold">1</text>
  <text x="445" y="210" fill="#008000" font-family="Arial, sans-serif" font-size="20" font-weight="bold">2</text>
  <text x="175" y="300" fill="#0000ff" font-family="Arial, sans-serif" font-size="20" font-weight="bold">1</text>
  <text x="235" y="300" fill="#008000" font-family="Arial, sans-serif" font-size="20" font-weight="bold">2</text>
  <text x="265" y="300" fill="#ff0000" font-family="Arial, sans-serif" font-size="20" font-weight="bold">3</text>

  <!-- 旗セル（未開封ブロック内） -->
  <!-- 旗1 -->
  <rect x="490" y="245" width="30" height="30" fill="#c0c0c0"/>
  <line x1="490" y1="245" x2="520" y2="245" stroke="#fff" stroke-width="2"/>
  <line x1="490" y1="245" x2="490" y2="275" stroke="#fff" stroke-width="2"/>
  <line x1="519" y1="245" x2="519" y2="275" stroke="#808080" stroke-width="2"/>
  <line x1="490" y1="274" x2="520" y2="274" stroke="#808080" stroke-width="2"/>
  <line x1="505" y1="252" x2="505" y2="268" stroke="#000" stroke-width="2"/>
  <polygon points="505,252 505,260 497,256" fill="#ff0000"/>
  <line x1="498" y1="268" x2="512" y2="268" stroke="#000" stroke-width="1.5"/>

  <!-- 旗2 -->
  <rect x="580" y="335" width="30" height="30" fill="#c0c0c0"/>
  <line x1="580" y1="335" x2="610" y2="335" stroke="#fff" stroke-width="2"/>
  <line x1="580" y1="335" x2="580" y2="365" stroke="#fff" stroke-width="2"/>
  <line x1="609" y1="335" x2="609" y2="365" stroke="#808080" stroke-width="2"/>
  <line x1="580" y1="364" x2="610" y2="364" stroke="#808080" stroke-width="2"/>
  <line x1="595" y1="342" x2="595" y2="358" stroke="#000" stroke-width="2"/>
  <polygon points="595,342 595,350 587,346" fill="#ff0000"/>
  <line x1="588" y1="358" x2="602" y2="358" stroke="#000" stroke-width="1.5"/>

  <!-- 旗3 -->
  <rect x="340" y="95" width="30" height="30" fill="#c0c0c0"/>
  <line x1="340" y1="95" x2="370" y2="95" stroke="#fff" stroke-width="2"/>
  <line x1="340" y1="95" x2="340" y2="125" stroke="#fff" stroke-width="2"/>
  <line x1="369" y1="95" x2="369" y2="125" stroke="#808080" stroke-width="2"/>
  <line x1="340" y1="124" x2="370" y2="124" stroke="#808080" stroke-width="2"/>
  <line x1="355" y1="102" x2="355" y2="118" stroke="#000" stroke-width="2"/>
  <polygon points="355,102 355,110 347,106" fill="#ff0000"/>
  <line x1="348" y1="118" x2="362" y2="118" stroke="#000" stroke-width="1.5"/>

  <!-- 下部の未開封行 -->
  <rect x="160" y="485" width="480" height="60" fill="#c0c0c0"/>
  <line x1="190" y1="485" x2="190" y2="545" stroke="#808080" stroke-width="1"/>
  <line x1="220" y1="485" x2="220" y2="545" stroke="#808080" stroke-width="1"/>
  <line x1="250" y1="485" x2="250" y2="545" stroke="#808080" stroke-width="1"/>
  <line x1="280" y1="485" x2="280" y2="545" stroke="#808080" stroke-width="1"/>
  <line x1="310" y1="485" x2="310" y2="545" stroke="#808080" stroke-width="1"/>
  <line x1="340" y1="485" x2="340" y2="545" stroke="#808080" stroke-width="1"/>
  <line x1="370" y1="485" x2="370" y2="545" stroke="#808080" stroke-width="1"/>
  <line x1="400" y1="485" x2="400" y2="545" stroke="#808080" stroke-width="1"/>
  <line x1="430" y1="485" x2="430" y2="545" stroke="#808080" stroke-width="1"/>
  <line x1="460" y1="485" x2="460" y2="545" stroke="#808080" stroke-width="1"/>
  <line x1="490" y1="485" x2="490" y2="545" stroke="#808080" stroke-width="1"/>
  <line x1="520" y1="485" x2="520" y2="545" stroke="#808080" stroke-width="1"/>
  <line x1="550" y1="485" x2="550" y2="545" stroke="#808080" stroke-width="1"/>
  <line x1="580" y1="485" x2="580" y2="545" stroke="#808080" stroke-width="1"/>
  <line x1="610" y1="485" x2="610" y2="545" stroke="#808080" stroke-width="1"/>
  <line x1="160" y1="515" x2="640" y2="515" stroke="#808080" stroke-width="1"/>
  <!-- 白ハイライト -->
  <line x1="161" y1="486" x2="161" y2="545" stroke="#fff" stroke-width="1"/>
  <line x1="191" y1="486" x2="191" y2="545" stroke="#fff" stroke-width="1"/>
  <line x1="221" y1="486" x2="221" y2="545" stroke="#fff" stroke-width="1"/>
  <line x1="251" y1="486" x2="251" y2="545" stroke="#fff" stroke-width="1"/>
  <line x1="281" y1="486" x2="281" y2="545" stroke="#fff" stroke-width="1"/>
  <line x1="311" y1="486" x2="311" y2="545" stroke="#fff" stroke-width="1"/>
  <line x1="341" y1="486" x2="341" y2="545" stroke="#fff" stroke-width="1"/>
  <line x1="371" y1="486" x2="371" y2="545" stroke="#fff" stroke-width="1"/>
  <line x1="401" y1="486" x2="401" y2="545" stroke="#fff" stroke-width="1"/>
  <line x1="431" y1="486" x2="431" y2="545" stroke="#fff" stroke-width="1"/>
  <line x1="461" y1="486" x2="461" y2="545" stroke="#fff" stroke-width="1"/>
  <line x1="491" y1="486" x2="491" y2="545" stroke="#fff" stroke-width="1"/>
  <line x1="521" y1="486" x2="521" y2="545" stroke="#fff" stroke-width="1"/>
  <line x1="551" y1="486" x2="551" y2="545" stroke="#fff" stroke-width="1"/>
  <line x1="581" y1="486" x2="581" y2="545" stroke="#fff" stroke-width="1"/>
  <line x1="611" y1="486" x2="611" y2="545" stroke="#fff" stroke-width="1"/>
  <line x1="160" y1="486" x2="640" y2="486" stroke="#fff" stroke-width="1"/>
  <line x1="160" y1="516" x2="640" y2="516" stroke="#fff" stroke-width="1"/>
</svg>