<svg xmlns="http://www.w3.org/2000/svg" viewBox="0 0 800 600" width="800" height="600">
  <!-- 背景 -->
  <rect width="800" height="600" fill="#d4a86a"/>

  <!-- 盤面の影 -->
  <rect x="153" y="33" width="494" height="534" rx="2" fill="#8b6914" opacity="0.3"/>

  <!-- 盤面（木目） -->
  <rect x="150" y="30" width="494" height="534" rx="2" fill="#deb972"/>
  <rect x="150" y="30" width="494" height="534" rx="2" fill="url(#woodgrain)" opacity="0.15"/>

  <defs>
    <pattern id="woodgrain" width="494" height="534" patternUnits="userSpaceOnUse">
      <line x1="0" y1="20" x2="494" y2="22" stroke="#c4a052" stroke-width="0.8" opacity="0.4"/>
      <line x1="0" y1="55" x2="494" y2="53" stroke="#c4a052" stroke-width="0.5" opacity="0.3"/>
      <line x1="0" y1="95" x2="494" y2="97" stroke="#c4a052" stroke-width="0.7" opacity="0.35"/>
      <line x1="0" y1="130" x2="494" y2="128" stroke="#c4a052" stroke-width="0.4" opacity="0.3"/>
      <line x1="0" y1="170" x2="494" y2="172" stroke="#c4a052" stroke-width="0.6" opacity="0.3"/>
      <line x1="0" y1="210" x2="494" y2="208" stroke="#c4a052" stroke-width="0.8" opacity="0.35"/>
      <line x1="0" y1="250" x2="494" y2="252" stroke="#c4a052" stroke-width="0.5" opacity="0.3"/>
      <line x1="0" y1="290" x2="494" y2="288" stroke="#c4a052" stroke-width="0.7" opacity="0.4"/>
      <line x1="0" y1="330" x2="494" y2="332" stroke="#c4a052" stroke-width="0.4" opacity="0.3"/>
      <line x1="0" y1="370" x2="494" y2="368" stroke="#c4a052" stroke-width="0.6" opacity="0.35"/>
      <line x1="0" y1="410" x2="494" y2="412" stroke="#c4a052" stroke-width="0.8" opacity="0.3"/>
      <line x1="0" y1="450" x2="494" y2="448" stroke="#c4a052" stroke-width="0.5" opacity="0.3"/>
      <line x1="0" y1="490" x2="494" y2="492" stroke="#c4a052" stroke-width="0.7" opacity="0.35"/>
    </pattern>
  </defs>

  <!-- 9x9 グリッド線 -->
  <g stroke="#4a3520" stroke-width="1.2">
    <!-- 縦線 (10本) -->
    <line x1="178" y1="50" x2="178" y2="544"/>
    <line x1="232" y1="50" x2="232" y2="544"/>
    <line x1="286" y1="50" x2="286" y2="544"/>
    <line x1="340" y1="50" x2="340" y2="544"/>
    <line x1="394" y1="50" x2="394" y2="544"/>
    <line x1="448" y1="50" x2="448" y2="544"/>
    <line x1="502" y1="50" x2="502" y2="544"/>
    <line x1="556" y1="50" x2="556" y2="544"/>
    <line x1="610" y1="50" x2="610" y2="544"/>
    <!-- 横線 (10本) -->
    <line x1="178" y1="50" x2="610" y2="50"/>
    <line x1="178" y1="105" x2="610" y2="105"/>
    <line x1="178" y1="160" x2="610" y2="160"/>
    <line x1="178" y1="215" x2="610" y2="215"/>
    <line x1="178" y1="270" x2="610" y2="270"/>
    <line x1="178" y1="325" x2="610" y2="325"/>
    <line x1="178" y1="380" x2="610" y2="380"/>
    <line x1="178" y1="435" x2="610" y2="435"/>
    <line x1="178" y1="490" x2="610" y2="490"/>
    <line x1="178" y1="544" x2="610" y2="544"/>
  </g>

  <!-- 星（目印）4つ -->
  <circle cx="286" cy="160" r="4" fill="#4a3520"/>
  <circle cx="502" cy="160" r="4" fill="#4a3520"/>
  <circle cx="286" cy="435" r="4" fill="#4a3520"/>
  <circle cx="502" cy="435" r="4" fill="#4a3520"/>

  <!-- 駒テンプレート: 五角形 -->
  <!-- 後手（上側）の駒 - 逆向き -->
  <!-- 後手: 香 -->
  <g transform="translate(589,60) rotate(180,0,20)">
    <polygon points="0,0 -18,8 -16,38 16,38 18,8" fill="#f5e6c8" stroke="#4a3520" stroke-width="1"/>
    <text x="0" y="28" fill="#4a3520" font-family="serif" font-size="18" text-anchor="middle">香</text>
  </g>
  <!-- 後手: 桂 -->
  <g transform="translate(535,60) rotate(180,0,20)">
    <polygon points="0,0 -18,8 -16,38 16,38 18,8" fill="#f5e6c8" stroke="#4a3520" stroke-width="1"/>
    <text x="0" y="28" fill="#4a3520" font-family="serif" font-size="18" text-anchor="middle">桂</text>
  </g>
  <!-- 後手: 銀 -->
  <g transform="translate(481,60) rotate(180,0,20)">
    <polygon points="0,0 -18,8 -16,38 16,38 18,8" fill="#f5e6c8" stroke="#4a3520" stroke-width="1"/>
    <text x="0" y="28" fill="#4a3520" font-family="serif" font-size="18" text-anchor="middle">銀</text>
  </g>
  <!-- 後手: 金 -->
  <g transform="translate(427,60) rotate(180,0,20)">
    <polygon points="0,0 -18,8 -16,38 16,38 18,8" fill="#f5e6c8" stroke="#4a3520" stroke-width="1"/>
    <text x="0" y="28" fill="#4a3520" font-family="serif" font-size="18" text-anchor="middle">金</text>
  </g>
  <!-- 後手: 玉 -->
  <g transform="translate(373,60) rotate(180,0,20)">
    <polygon points="0,0 -20,9 -18,40 18,40 20,9" fill="#f5e6c8" stroke="#4a3520" stroke-width="1.5"/>
    <text x="0" y="30" fill="#4a3520" font-family="serif" font-size="20" font-weight="bold" text-anchor="middle">玉</text>
  </g>
  <!-- 後手: 金 -->
  <g transform="translate(319,60) rotate(180,0,20)">
    <polygon points="0,0 -18,8 -16,38 16,38 18,8" fill="#f5e6c8" stroke="#4a3520" stroke-width="1"/>
    <text x="0" y="28" fill="#4a3520" font-family="serif" font-size="18" text-anchor="middle">金</text>
  </g>
  <!-- 後手: 銀 -->
  <g transform="translate(265,60) rotate(180,0,20)">
    <polygon points="0,0 -18,8 -16,38 16,38 18,8" fill="#f5e6c8" stroke="#4a3520" stroke-width="1"/>
    <text x="0" y="28" fill="#4a3520" font-family="serif" font-size="18" text-anchor="middle">銀</text>
  </g>
  <!-- 後手: 桂 -->
  <g transform="translate(211,60) rotate(180,0,20)">
    <polygon points="0,0 -18,8 -16,38 16,38 18,8" fill="#f5e6c8" stroke="#4a3520" stroke-width="1"/>
    <text x="0" y="28" fill="#4a3520" font-family="serif" font-size="18" text-anchor="middle">桂</text>
  </g>
  <!-- 後手: 香 -->
  <g transform="translate(197,60) rotate(180,0,20)">
    <polygon points="0,0 -18,8 -16,38 16,38 18,8" fill="#f5e6c8" stroke="#4a3520" stroke-width="1"/>
    <text x="0" y="28" fill="#4a3520" font-family="serif" font-size="18" text-anchor="middle">香</text>
  </g>

  <!-- 後手: 角 -->
  <g transform="translate(535,115) rotate(180,0,20)">
    <polygon points="0,0 -18,8 -16,38 16,38 18,8" fill="#f5e6c8" stroke="#4a3520" stroke-width="1"/>
    <text x="0" y="28" fill="#4a3520" font-family="serif" font-size="18" text-anchor="middle">角</text>
  </g>
  <!-- 後手: 飛 -->
  <g transform="translate(211,115) rotate(180,0,20)">
    <polygon points="0,0 -18,8 -16,38 16,38 18,8" fill="#f5e6c8" stroke="#4a3520" stroke-width="1"/>
    <text x="0" y="28" fill="#4a3520" font-family="serif" font-size="18" text-anchor="middle">飛</text>
  </g>

  <!-- 後手: 歩 (9枚) -->
  <g>
    <g transform="translate(197,170) rotate(180,0,18)">
      <polygon points="0,0 -15,7 -13,33 13,33 15,7" fill="#f5e6c8" stroke="#4a3520" stroke-width="0.8"/>
      <text x="0" y="24" fill="#4a3520" font-family="serif" font-size="16" text-anchor="middle">歩</text>
    </g>
    <g transform="translate(251,170) rotate(180,0,18)">
      <polygon points="0,0 -15,7 -13,33 13,33 15,7" fill="#f5e6c8" stroke="#4a3520" stroke-width="0.8"/>
      <text x="0" y="24" fill="#4a3520" font-family="serif" font-size="16" text-anchor="middle">歩</text>
    </g>
    <g transform="translate(305,170) rotate(180,0,18)">
      <polygon points="0,0 -15,7 -13,33 13,33 15,7" fill="#f5e6c8" stroke="#4a3520" stroke-width="0.8"/>
      <text x="0" y="24" fill="#4a3520" font-family="serif" font-size="16" text-anchor="middle">歩</text>
    </g>
    <g transform="translate(359,170) rotate(180,0,18)">
      <polygon points="0,0 -15,7 -13,33 13,33 15,7" fill="#f5e6c8" stroke="#4a3520" stroke-width="0.8"/>
      <text x="0" y="24" fill="#4a3520" font-family="serif" font-size="16" text-anchor="middle">歩</text>
    </g>
    <g transform="translate(413,170) rotate(180,0,18)">
      <polygon points="0,0 -15,7 -13,33 13,33 15,7" fill="#f5e6c8" stroke="#4a3520" stroke-width="0.8"/>
      <text x="0" y="24" fill="#4a3520" font-family="serif" font-size="16" text-anchor="middle">歩</text>
    </g>
    <g transform="translate(467,170) rotate(180,0,18)">
      <polygon points="0,0 -15,7 -13,33 13,33 15,7" fill="#f5e6c8" stroke="#4a3520" stroke-width="0.8"/>
      <text x="0" y="24" fill="#4a3520" font-family="serif" font-size="16" text-anchor="middle">歩</text>
    </g>
    <g transform="translate(521,170) rotate(180,0,18)">
      <polygon points="0,0 -15,7 -13,33 13,33 15,7" fill="#f5e6c8" stroke="#4a3520" stroke-width="0.8"/>
      <text x="0" y="24" fill="#4a3520" font-family="serif" font-size="16" text-anchor="middle">歩</text>
    </g>
    <g transform="translate(575,170) rotate(180,0,18)">
      <polygon points="0,0 -15,7 -13,33 13,33 15,7" fill="#f5e6c8" stroke="#4a3520" stroke-width="0.8"/>
      <text x="0" y="24" fill="#4a3520" font-family="serif" font-size="16" text-anchor="middle">歩</text>
    </g>
    <!-- 1枚は取られた状態 -->
  </g>

  <!-- 先手（下側）の駒 - 正向き -->
  <!-- 先手: 歩 (8枚 - 1枚は突いている) -->
  <g>
    <g transform="translate(197,397)">
      <polygon points="0,0 -15,7 -13,33 13,33 15,7" fill="#f5e6c8" stroke="#4a3520" stroke-width="0.8"/>
      <text x="0" y="24" fill="#4a3520" font-family="serif" font-size="16" text-anchor="middle">歩</text>
    </g>
    <g transform="translate(251,397)">
      <polygon points="0,0 -15,7 -13,33 13,33 15,7" fill="#f5e6c8" stroke="#4a3520" stroke-width="0.8"/>
      <text x="0" y="24" fill="#4a3520" font-family="serif" font-size="16" text-anchor="middle">歩</text>
    </g>
    <g transform="translate(305,397)">
      <polygon points="0,0 -15,7 -13,33 13,33 15,7" fill="#f5e6c8" stroke="#4a3520" stroke-width="0.8"/>
      <text x="0" y="24" fill="#4a3520" font-family="serif" font-size="16" text-anchor="middle">歩</text>
    </g>
    <!-- 4筋の歩は前に出ている -->
    <g transform="translate(359,342)">
      <polygon points="0,0 -15,7 -13,33 13,33 15,7" fill="#f5e6c8" stroke="#4a3520" stroke-width="0.8"/>
      <text x="0" y="24" fill="#4a3520" font-family="serif" font-size="16" text-anchor="middle">歩</text>
    </g>
    <g transform="translate(413,397)">
      <polygon points="0,0 -15,7 -13,33 13,33 15,7" fill="#f5e6c8" stroke="#4a3520" stroke-width="0.8"/>
      <text x="0" y="24" fill="#4a3520" font-family="serif" font-size="16" text-anchor="middle">歩</text>
    </g>
    <g transform="translate(467,397)">
      <polygon points="0,0 -15,7 -13,33 13,33 15,7" fill="#f5e6c8" stroke="#4a3520" stroke-width="0.8"/>
      <text x="0" y="24" fill="#4a3520" font-family="serif" font-size="16" text-anchor="middle">歩</text>
    </g>
    <g transform="translate(521,397)">
      <polygon points="0,0 -15,7 -13,33 13,33 15,7" fill="#f5e6c8" stroke="#4a3520" stroke-width="0.8"/>
      <text x="0" y="24" fill="#4a3520" font-family="serif" font-size="16" text-anchor="middle">歩</text>
    </g>
    <g transform="translate(575,397)">
      <polygon points="0,0 -15,7 -13,33 13,33 15,7" fill="#f5e6c8" stroke="#4a3520" stroke-width="0.8"/>
      <text x="0" y="24" fill="#4a3520" font-family="serif" font-size="16" text-anchor="middle">歩</text>
    </g>
  </g>

  <!-- 先手: 飛車 -->
  <g transform="translate(251,453)">
    <polygon points="0,0 -18,8 -16,38 16,38 18,8" fill="#f5e6c8" stroke="#4a3520" stroke-width="1"/>
    <text x="0" y="28" fill="#4a3520" font-family="serif" font-size="18" text-anchor="middle">飛</text>
  </g>
  <!-- 先手: 角 -->
  <g transform="translate(535,453)">
    <polygon points="0,0 -18,8 -16,38 16,38 18,8" fill="#f5e6c8" stroke="#4a3520" stroke-width="1"/>
    <text x="0" y="28" fill="#4a3520" font-family="serif" font-size="18" text-anchor="middle">角</text>
  </g>

  <!-- 先手: 裏列 -->
  <g transform="translate(197,508)">
    <polygon points="0,0 -18,8 -16,38 16,38 18,8" fill="#f5e6c8" stroke="#4a3520" stroke-width="1"/>
    <text x="0" y="28" fill="#4a3520" font-family="serif" font-size="18" text-anchor="middle">香</text>
  </g>
  <g transform="translate(251,508)">
    <polygon points="0,0 -18,8 -16,38 16,38 18,8" fill="#f5e6c8" stroke="#4a3520" stroke-width="1"/>
    <text x="0" y="28" fill="#4a3520" font-family="serif" font-size="18" text-anchor="middle">桂</text>
  </g>
  <g transform="translate(305,508)">
    <polygon points="0,0 -18,8 -16,38 16,38 18,8" fill="#f5e6c8" stroke="#4a3520" stroke-width="1"/>
    <text x="0" y="28" fill="#4a3520" font-family="serif" font-size="18" text-anchor="middle">銀</text>
  </g>
  <g transform="translate(359,508)">
    <polygon points="0,0 -18,8 -16,38 16,38 18,8" fill="#f5e6c8" stroke="#4a3520" stroke-width="1"/>
    <text x="0" y="28" fill="#4a3520" font-family="serif" font-size="18" text-anchor="middle">金</text>
  </g>
  <g transform="translate(413,508)">
    <polygon points="0,0 -20,9 -18,40 18,40 20,9" fill="#f5e6c8" stroke="#4a3520" stroke-width="1.5"/>
    <text x="0" y="30" fill="#4a3520" font-family="serif" font-size="20" font-weight="bold" text-anchor="middle">王</text>
  </g>
  <g transform="translate(467,508)">
    <polygon points="0,0 -18,8 -16,38 16,38 18,8" fill="#f5e6c8" stroke="#4a3520" stroke-width="1"/>
    <text x="0" y="28" fill="#4a3520" font-family="serif" font-size="18" text-anchor="middle">金</text>
  </g>
  <g transform="translate(521,508)">
    <polygon points="0,0 -18,8 -16,38 16,38 18,8" fill="#f5e6c8" stroke="#4a3520" stroke-width="1"/>
    <text x="0" y="28" fill="#4a3520" font-family="serif" font-size="18" text-anchor="middle">銀</text>
  </g>
  <g transform="translate(575,508)">
    <polygon points="0,0 -18,8 -16,38 16,38 18,8" fill="#f5e6c8" stroke="#4a3520" stroke-width="1"/>
    <text x="0" y="28" fill="#4a3520" font-family="serif" font-size="18" text-anchor="middle">桂</text>
  </g>
  <g transform="translate(589,508)">
    <polygon points="0,0 -18,8 -16,38 16,38 18,8" fill="#f5e6c8" stroke="#4a3520" stroke-width="1"/>
    <text x="0" y="28" fill="#4a3520" font-family="serif" font-size="18" text-anchor="middle">香</text>
  </g>

  <!-- 合法手ハイライト -->
  <rect x="340" y="270" width="54" height="55" fill="#90ee90" opacity="0.35" rx="2"/>
  <rect x="340" y="215" width="54" height="55" fill="#90ee90" opacity="0.35" rx="2"/>

  <!-- 持ち駒エリア（先手 - 右下） -->
  <rect x="660" y="400" width="120" height="170" rx="4" fill="#e8d4a0" stroke="#4a3520" stroke-width="1"/>
  <text x="720" y="425" fill="#4a3520" font-family="serif" font-size="14" text-anchor="middle">先手 持駒</text>
  <g transform="translate(690,445)">
    <polygon points="0,0 -12,5 -10,26 10,26 12,5" fill="#f5e6c8" stroke="#4a3520" stroke-width="0.8"/>
    <text x="0" y="20" fill="#4a3520" font-family="serif" font-size="14" text-anchor="middle">歩</text>
  </g>

  <!-- 持ち駒エリア（後手 - 左上） -->
  <rect x="20" y="30" width="120" height="170" rx="4" fill="#e8d4a0" stroke="#4a3520" stroke-width="1"/>
  <text x="80" y="55" fill="#4a3520" font-family="serif" font-size="14" text-anchor="middle">後手 持駒</text>
  <text x="80" y="110" fill="#4a3520" font-family="serif" font-size="16" text-anchor="middle">なし</text>

  <!-- 段・筋の数字 -->
  <g fill="#4a3520" font-family="serif" font-size="12">
    <text x="197" y="46" text-anchor="middle">9</text>
    <text x="251" y="46" text-anchor="middle">8</text>
    <text x="305" y="46" text-anchor="middle">7</text>
    <text x="359" y="46" text-anchor="middle">6</text>
    <text x="413" y="46" text-anchor="middle">5</text>
    <text x="467" y="46" text-anchor="middle">4</text>
    <text x="521" y="46" text-anchor="middle">3</text>
    <text x="575" y="46" text-anchor="middle">2</text>
    <text x="600" y="46" text-anchor="middle">1</text>

    <text x="618" y="82">一</text>
    <text x="618" y="137">二</text>
    <text x="618" y="192">三</text>
    <text x="618" y="247">四</text>
    <text x="618" y="302">五</text>
    <text x="618" y="357">六</text>
    <text x="618" y="412">七</text>
    <text x="618" y="467">八</text>
    <text x="618" y="522">九</text>
  </g>
</svg>